<svg width="164" height="45" viewBox="0 0 164 45" fill="none" xmlns="http://www.w3.org/2000/svg">
<g clip-path="url(#clip0_5834_1754)">
<path d="M35.4971 17.7836C36.4693 21.8098 36.0233 26.0482 34.2341 29.7838L33.3231 31.758L8.55018 20.9497L10.0092 17.6057L31.784 27.1059C32.7922 24.3795 32.9727 21.4044 32.2856 18.5591C31.4918 15.2718 29.5886 12.3589 26.8969 10.3117C24.2053 8.26438 20.89 7.20802 17.5101 7.32075C14.1303 7.43347 10.8927 8.70838 8.34347 10.9304C5.79423 13.1525 4.08934 16.1858 3.51632 19.5186C2.94331 22.8514 3.53725 26.2799 5.19796 29.2258C6.85868 32.1717 9.48454 34.4547 12.6327 35.6898C15.7808 36.9248 19.2586 37.0364 22.4794 36.0057L23.4864 39.1522C19.5415 40.4147 15.2819 40.2781 11.4261 38.7653C7.57021 37.2526 4.35404 34.4564 2.31999 30.8482C0.285941 27.2401 -0.441517 23.0409 0.260311 18.9588C0.96214 14.8767 3.05031 11.1616 6.17262 8.43998C9.29494 5.71838 13.2603 4.15686 17.4 4.0188C21.5397 3.88073 25.6003 5.17456 28.897 7.68208C32.1937 10.1896 34.5248 13.7573 35.4971 17.7836Z" fill="#0A6E54"/>
<rect x="26.3428" width="2.59374" height="7.71734" transform="rotate(24.6486 26.3428 0)" fill="#0A6E54"/>
<rect x="9.64948" y="36.3281" width="2.59374" height="7.63815" transform="rotate(22.957 9.64948 36.3281)" fill="#0A6E54"/>
<path d="M48.3823 14.8088H60.4723V17.7988H52.1263V21.9588H59.5623V24.9488H52.1263V30.0188H60.4723V33.0088H48.3823V14.8088Z" fill="#0A6E54"/>
<path d="M68.6438 33.2688C66.6331 33.2688 65.0471 32.6708 63.8858 31.4748C62.7418 30.2615 62.1698 28.6061 62.1698 26.5088C62.1698 24.3941 62.7418 22.7388 63.8858 21.5428C65.0471 20.3468 66.6331 19.7488 68.6438 19.7488C69.8571 19.7488 70.9144 19.9741 71.8158 20.4248C72.7171 20.8755 73.4104 21.5168 73.8958 22.3488L71.8938 24.0908C71.5644 23.5188 71.1224 23.0768 70.5678 22.7648C70.0304 22.4528 69.4411 22.2968 68.7998 22.2968C67.7598 22.2968 66.9451 22.6695 66.3558 23.4148C65.7664 24.1601 65.4718 25.1915 65.4718 26.5088C65.4718 27.8261 65.7664 28.8575 66.3558 29.6028C66.9451 30.3481 67.7598 30.7208 68.7998 30.7208C69.4411 30.7208 70.0304 30.5648 70.5678 30.2528C71.1051 29.9235 71.5471 29.4815 71.8938 28.9268L73.8958 30.6688C73.4104 31.5008 72.7171 32.1421 71.8158 32.5928C70.9144 33.0435 69.8571 33.2688 68.6438 33.2688Z" fill="#0A6E54"/>
<path d="M81.7787 33.2688C79.6813 33.2688 78.0433 32.6708 76.8647 31.4748C75.686 30.2788 75.0967 28.6235 75.0967 26.5088C75.0967 24.3941 75.686 22.7388 76.8647 21.5428C78.0433 20.3468 79.6813 19.7488 81.7787 19.7488C83.876 19.7488 85.514 20.3468 86.6927 21.5428C87.8887 22.7388 88.4867 24.3941 88.4867 26.5088C88.4867 28.6235 87.8887 30.2788 86.6927 31.4748C85.514 32.6708 83.876 33.2688 81.7787 33.2688ZM81.7787 30.7988C82.836 30.7988 83.668 30.4175 84.2747 29.6548C84.8813 28.8921 85.1847 27.8435 85.1847 26.5088C85.1847 25.1741 84.8813 24.1255 84.2747 23.3628C83.668 22.6001 82.836 22.2188 81.7787 22.2188C80.7213 22.2188 79.8893 22.6001 79.2827 23.3628C78.6933 24.1255 78.3987 25.1741 78.3987 26.5088C78.3987 27.8435 78.6933 28.8921 79.2827 29.6548C79.8893 30.4175 80.7213 30.7988 81.7787 30.7988Z" fill="#0A6E54"/>
<path d="M90.5693 23.4668C90.5693 21.7335 90.5346 20.5808 90.4653 20.0088H93.3773C93.464 20.7021 93.5073 21.4561 93.5073 22.2708H93.5593C93.8366 21.4908 94.3393 20.8755 95.0673 20.4248C95.7953 19.9741 96.6446 19.7488 97.6153 19.7488C98.5513 19.7488 99.3486 19.9568 100.007 20.3728C100.666 20.7715 101.108 21.3261 101.333 22.0368C101.68 21.3261 102.209 20.7715 102.919 20.3728C103.63 19.9568 104.427 19.7488 105.311 19.7488C106.75 19.7488 107.877 20.2168 108.691 21.1528C109.523 22.0715 109.939 23.3455 109.939 24.9748V33.0088H106.637V25.3388C106.637 24.4201 106.438 23.7095 106.039 23.2068C105.641 22.6868 105.095 22.4268 104.401 22.4268C103.639 22.4268 103.023 22.6955 102.555 23.2328C102.105 23.7528 101.879 24.4635 101.879 25.3648V33.0088H98.6033V25.4428C98.6033 24.4895 98.4126 23.7528 98.0313 23.2328C97.65 22.6955 97.1126 22.4268 96.4193 22.4268C95.674 22.4268 95.0586 22.7128 94.5733 23.2848C94.1053 23.8395 93.8713 24.5588 93.8713 25.4428V33.0088H90.5693V23.4668Z" fill="#0A6E54"/>
<path d="M114.846 18.5008C114.204 18.5008 113.693 18.3275 113.312 17.9808C112.93 17.6168 112.74 17.1401 112.74 16.5508C112.74 15.9615 112.93 15.4935 113.312 15.1468C113.693 14.7828 114.204 14.6008 114.846 14.6008C115.487 14.6008 115.998 14.7828 116.38 15.1468C116.778 15.4935 116.978 15.9615 116.978 16.5508C116.978 17.1401 116.787 17.6168 116.406 17.9808C116.024 18.3275 115.504 18.5008 114.846 18.5008ZM113.208 20.0088H116.51V33.0088H113.208V20.0088Z" fill="#0A6E54"/>
<path d="M123.307 33.2688C122.198 33.2688 121.348 32.9741 120.759 32.3848C120.187 31.7781 119.901 30.9115 119.901 29.7848V13.7168H123.203V29.8368C123.203 30.2181 123.298 30.5041 123.489 30.6948C123.697 30.8681 124 30.9548 124.399 30.9548C124.798 30.9548 125.292 30.8421 125.881 30.6168L126.375 32.3848C125.595 32.9741 124.572 33.2688 123.307 33.2688Z" fill="#0A6E54"/>
<path d="M131.127 33.2688C130.018 33.2688 129.169 32.9741 128.579 32.3848C128.007 31.7781 127.721 30.9115 127.721 29.7848V13.7168H131.023V29.8368C131.023 30.2181 131.119 30.5041 131.309 30.6948C131.517 30.8681 131.821 30.9548 132.219 30.9548C132.618 30.9548 133.112 30.8421 133.701 30.6168L134.195 32.3848C133.415 32.9741 132.393 33.2688 131.127 33.2688Z" fill="#0A6E54"/>
<path d="M137.596 18.5008C136.954 18.5008 136.443 18.3275 136.062 17.9808C135.68 17.6168 135.49 17.1401 135.49 16.5508C135.49 15.9615 135.68 15.4935 136.062 15.1468C136.443 14.7828 136.954 14.6008 137.596 14.6008C138.237 14.6008 138.748 14.7828 139.13 15.1468C139.528 15.4935 139.728 15.9615 139.728 16.5508C139.728 17.1401 139.537 17.6168 139.156 17.9808C138.774 18.3275 138.254 18.5008 137.596 18.5008ZM135.958 20.0088H139.26V33.0088H135.958V20.0088Z" fill="#0A6E54"/>
</g>
<path d="M159.723 33.269C159.125 33.269 158.589 33.171 158.113 32.975C157.637 32.7697 157.231 32.4897 156.895 32.135C156.559 31.771 156.297 31.3603 156.111 30.903C155.933 30.4457 155.845 29.965 155.845 29.461C155.845 28.7703 155.999 28.1403 156.307 27.571C156.624 26.9923 157.072 26.5303 157.651 26.185C158.229 25.8397 158.915 25.667 159.709 25.667C160.502 25.667 161.183 25.8397 161.753 26.185C162.322 26.5303 162.747 26.983 163.027 27.543L161.193 28.103C161.034 27.8323 160.824 27.627 160.563 27.487C160.301 27.3377 160.012 27.263 159.695 27.263C159.34 27.263 159.013 27.3563 158.715 27.543C158.425 27.7203 158.197 27.977 158.029 28.313C157.861 28.6397 157.777 29.0223 157.777 29.461C157.777 29.8903 157.861 30.273 158.029 30.609C158.206 30.9357 158.439 31.197 158.729 31.393C159.018 31.5797 159.34 31.673 159.695 31.673C159.919 31.673 160.129 31.6357 160.325 31.561C160.53 31.4863 160.712 31.3837 160.871 31.253C161.029 31.1223 161.146 30.973 161.221 30.805L163.055 31.365C162.887 31.729 162.639 32.0557 162.313 32.345C161.995 32.6343 161.617 32.863 161.179 33.031C160.749 33.1897 160.264 33.269 159.723 33.269Z" fill="#0A6E54"/>
<path d="M154.675 33.129H152.799V29.013C152.799 28.425 152.697 27.9957 152.491 27.725C152.286 27.4543 152.001 27.319 151.637 27.319C151.385 27.319 151.129 27.3843 150.867 27.515C150.615 27.6457 150.387 27.8277 150.181 28.061C149.976 28.285 149.827 28.5463 149.733 28.845V33.129H147.857V25.793H149.551V27.151C149.738 26.8337 149.976 26.5677 150.265 26.353C150.555 26.129 150.886 25.961 151.259 25.849C151.642 25.7277 152.043 25.667 152.463 25.667C152.921 25.667 153.294 25.751 153.583 25.919C153.882 26.0777 154.106 26.297 154.255 26.577C154.414 26.8477 154.521 27.1557 154.577 27.501C154.643 27.8463 154.675 28.1963 154.675 28.551V33.129Z" fill="#0A6E54"/>
<path d="M144.289 33.1292V25.7932H146.165V33.1292H144.289ZM144.289 24.7712V22.9092H146.165V24.7712H144.289Z" fill="#0A6E54"/>
<path d="M141.103 33.1293V31.1133H142.643V33.1293H141.103Z" fill="#0A6E54"/>
<defs>
<clipPath id="clip0_5834_1754">
<rect width="145.614" height="44.373" fill="white"/>
</clipPath>
</defs>
</svg>
