<?xml version="1.0"?>
<svg xmlns="http://www.w3.org/2000/svg" width="192" height="35" viewBox="0 0 192 35" fill="none">
<path d="M5.68043 34.7101H3.24186C2.73382 34.7101 2.68899 34.6424 2.88623 34.1805L6.92661 24.8057C9.65805 18.4618 12.3915 12.1247 15.1269 5.79443C15.1683 5.64487 15.1884 5.4904 15.1867 5.3354C15.0408 5.31767 14.8933 5.31767 14.7474 5.3354C9.9061 6.40058 5.99721 10.5465 5.24711 15.3928C4.8838 17.6345 5.14724 19.9314 6.00916 22.0369C6.07783 22.2191 6.07783 22.4196 6.00916 22.6018C5.33078 24.2172 4.63447 25.8385 3.93219 27.4363C3.87541 27.5628 3.75288 27.7306 3.65128 27.7482C3.54967 27.7659 3.40024 27.6011 3.31657 27.4863C0.838026 24.1452 -0.315105 20.0274 0.0741042 15.9077C0.379707 12.2102 1.88482 8.70748 4.36719 5.91678C6.84956 3.12608 10.1776 1.19535 13.8598 0.409706C14.9715 0.168424 16.131 0.141941 17.2666 0.00658742C17.5655 -0.0316647 17.694 0.0978044 17.8105 0.365569C20.4503 6.51926 23.0961 12.671 25.7479 18.8207C26.1961 19.8594 26.6444 20.8981 27.0956 21.9309C27.152 22.0403 27.1781 22.1623 27.1713 22.2848C27.1645 22.4072 27.125 22.5257 27.0568 22.6283C26.199 24.1051 24.9989 25.3613 23.5543 26.2946C23.1897 26.53 23.124 26.5065 22.9566 26.1122C21.5003 22.7519 20.0469 19.3906 18.5965 16.0283C18.3724 15.5105 18.0197 15.281 17.5266 15.328C17.3211 15.3474 17.1261 15.4266 16.9664 15.5555C16.8068 15.6844 16.6897 15.8572 16.6301 16.0519C15.8332 17.9351 15.0213 19.8163 14.1945 21.6955C12.3576 25.9033 10.5187 30.111 8.67784 34.3187C8.64244 34.4441 8.56283 34.5529 8.4533 34.6257C8.34377 34.6985 8.21148 34.7305 8.08015 34.716C7.28224 34.6866 6.48133 34.7101 5.68043 34.7101Z" fill="#010101"/>
<path d="M35.2541 16.8141C35.2541 25.7091 29.1726 32.9182 20.8677 34.4218C17.717 35.0079 14.4634 34.7332 11.4601 33.6273C10.967 33.4478 10.958 33.4155 11.1612 32.9447C11.7111 31.7059 12.2699 30.473 12.8049 29.2313C12.9304 28.937 13.0649 28.8752 13.3727 28.9841C15.0803 29.5901 16.9011 29.8242 18.7095 29.6702C20.518 29.5163 22.2709 28.978 23.8476 28.0924C25.4243 27.2068 26.7871 25.9951 27.8421 24.5407C28.8971 23.0863 29.6192 21.424 29.9586 19.6682C30.4921 16.8762 30.0339 13.9884 28.6611 11.4895C27.2882 8.99066 25.0841 7.03281 22.4187 5.94457C22.2705 5.89153 22.1358 5.80713 22.0243 5.69732C21.9128 5.5875 21.8271 5.45495 21.7732 5.30899C21.1247 3.75537 20.4463 2.21645 19.7859 0.665772C19.7321 0.539245 19.6783 0.333273 19.7381 0.253826C19.7978 0.174379 20.016 0.159667 20.1564 0.180264C25.177 0.960019 29.1756 3.3905 32.1102 7.47465C34.0966 10.2014 35.1932 13.4589 35.2541 16.8141Z" fill="#010101"/>
<path d="M174.041 27.7837C173.144 27.7837 172.271 27.7837 171.402 27.7837C171.333 27.7837 171.234 27.6777 171.208 27.6012C171.189 27.497 171.189 27.3906 171.208 27.2864V7.43647C171.208 6.93037 171.208 6.93037 171.74 6.93037C172.516 6.93037 173.293 6.95097 174.07 6.93037C174.233 6.91927 174.396 6.95135 174.543 7.02328C174.689 7.09521 174.813 7.20435 174.901 7.33937C179.025 12.5279 183.155 17.7106 187.291 22.8874C187.352 22.9745 187.423 23.0536 187.504 23.1228C187.553 23.1635 187.613 23.1906 187.677 23.2014C187.74 23.2122 187.806 23.2062 187.866 23.1841C187.927 23.1621 187.981 23.1246 188.022 23.0756C188.063 23.0266 188.09 22.9678 188.101 22.905C188.121 22.7775 188.127 22.6483 188.119 22.5196V7.43059C188.119 6.93037 188.119 6.93037 188.627 6.93037C189.297 6.93037 189.966 6.93037 190.635 6.93037C190.934 6.93037 191.018 7.03041 191.018 7.31583C191.018 14.0129 191.018 20.709 191.018 27.4041C191.018 27.7219 190.919 27.8043 190.609 27.7984C189.736 27.7778 188.863 27.7984 187.994 27.7984C187.888 27.807 187.782 27.7878 187.687 27.7428C187.591 27.6979 187.509 27.6287 187.45 27.5424C184.224 23.4837 180.998 19.428 177.77 15.3753C176.814 14.1688 175.861 12.9624 174.889 11.7707C174.826 11.7015 174.748 11.6458 174.662 11.6068C174.576 11.5679 174.482 11.5466 174.387 11.5442C174.13 11.5442 174.088 11.7972 174.068 12.0208C174.068 12.1385 174.068 12.2562 174.068 12.3739C174.068 17.3408 174.068 22.3077 174.068 27.2746C174.062 27.4276 174.05 27.5895 174.041 27.7837Z" fill="#010101"/>
<path d="M115.664 17.3496C115.664 14.0148 115.664 10.68 115.664 7.34521C115.664 7.02742 115.757 6.90972 116.092 6.91267C119.005 6.91267 121.922 6.89501 124.839 6.93915C126.573 6.92977 128.262 7.48645 129.641 8.5222C132.394 10.6231 132.501 15.3281 129.121 17.3908C128.605 17.684 128.067 17.9369 127.511 18.147C127.077 18.3265 127.056 18.3324 127.316 18.7355L132.767 27.1922C132.831 27.2779 132.886 27.3696 132.932 27.4658C132.988 27.6394 132.946 27.7777 132.728 27.7807C131.7 27.7807 130.672 27.7807 129.644 27.7807C129.534 27.7807 129.399 27.6188 129.325 27.4864C127.732 24.9853 126.136 22.4842 124.57 19.9743C124.367 19.6079 124.063 19.3058 123.693 19.1031C123.322 18.9005 122.901 18.8056 122.478 18.8297C121.438 18.8503 120.386 18.8297 119.358 18.8297C118.796 18.8297 118.796 18.8297 118.796 19.3681V27.2422C118.796 27.7718 118.796 27.7718 118.261 27.7748H116.136C115.667 27.7748 115.667 27.7748 115.667 27.2952L115.664 17.3496ZM118.784 12.7035C118.784 13.6568 118.784 14.6102 118.784 15.5635C118.784 16.102 119.029 16.3433 119.567 16.3433C121.097 16.3433 122.624 16.3433 124.154 16.3433C125.043 16.3492 125.921 16.1475 126.716 15.7548C127.313 15.4886 127.812 15.0458 128.142 14.488C128.473 13.9301 128.618 13.2848 128.559 12.6417C128.497 11.241 127.732 10.3289 126.429 9.82866C125.644 9.53863 124.811 9.39495 123.972 9.40494C122.382 9.40494 120.792 9.40494 119.191 9.40494C118.85 9.40494 118.76 9.53147 118.766 9.84337C118.793 10.7967 118.784 11.7589 118.784 12.7035Z" fill="#010101"/>
<path d="M151.101 6.46241C153.301 6.45981 155.452 7.09569 157.286 8.29054C159.121 9.48539 160.557 11.1862 161.415 13.1802C162.272 15.1743 162.514 17.3731 162.11 19.5017C161.705 21.6304 160.672 23.5944 159.14 25.1481C157.608 26.7018 155.645 27.7764 153.496 28.2373C151.347 28.6983 149.107 28.5252 147.058 27.7398C145.008 26.9544 143.239 25.5914 141.972 23.8213C140.705 22.0513 139.996 19.9527 139.934 17.788C139.894 16.3179 140.154 14.855 140.697 13.4852C141.241 12.1154 142.056 10.8662 143.097 9.81114C144.137 8.75606 145.381 7.91633 146.756 7.34126C148.13 6.7662 149.608 6.4674 151.101 6.46241ZM151.101 25.6915C153.306 25.6916 155.421 24.8353 156.988 23.3086C158.555 21.7819 159.446 19.7081 159.469 17.5379C159.469 13.0212 155.754 9.27836 151.245 9.27247C150.138 9.24533 149.037 9.43549 148.005 9.83186C146.974 10.2282 146.033 10.8229 145.238 11.5811C144.442 12.3393 143.808 13.2459 143.373 14.248C142.937 15.2501 142.708 16.3276 142.7 17.4176C142.691 18.5077 142.904 19.5885 143.324 20.5969C143.744 21.6053 144.365 22.5212 145.148 23.2911C145.932 24.061 146.864 24.6696 147.889 25.0812C148.914 25.4928 150.012 25.6992 151.119 25.6885L151.101 25.6915Z" fill="#010101"/>
<path d="M81.3001 27.7865C80.7742 27.7865 80.2482 27.7865 79.7252 27.7865C79.6275 27.8003 79.5282 27.7778 79.4464 27.7234C79.3647 27.669 79.3064 27.5866 79.2829 27.4923C77.5018 23.0394 75.7177 18.5913 73.9306 14.1482C73.0381 11.9178 72.1415 9.68936 71.241 7.46289C71.0527 7.00093 71.1006 6.93031 71.6056 6.93031C72.4185 6.93031 73.2313 6.93031 74.0442 6.93031C74.1716 6.91063 74.3019 6.93913 74.4088 7.01007C74.5158 7.08102 74.5916 7.18917 74.6209 7.31283C76.6332 12.5602 78.6494 17.8096 80.6696 23.0609C80.7951 23.3846 80.9475 23.6494 81.333 23.72C81.6737 23.773 81.9606 23.57 82.119 23.1316C82.9278 20.9992 83.7347 18.864 84.5396 16.7258C85.723 13.5872 86.9035 10.4485 88.0809 7.30989C88.107 7.17898 88.1843 7.0634 88.296 6.98801C88.4078 6.91262 88.5452 6.88345 88.6786 6.90677C89.4556 6.93031 90.2326 6.90677 91.0096 6.90677C91.4608 6.90677 91.5176 6.9921 91.3503 7.40993L83.9987 25.8033C83.7835 26.3388 83.5564 26.8685 83.3622 27.4099C83.3403 27.5242 83.2741 27.6256 83.1776 27.6926C83.081 27.7596 82.9618 27.787 82.8451 27.7689C82.3281 27.7689 81.8141 27.7865 81.3001 27.7865Z" fill="#010101"/>
<path d="M54.8733 6.93031C55.2798 6.93031 55.6862 6.93031 56.0926 6.93031C56.2405 6.91264 56.39 6.94734 56.5142 7.0282C56.6385 7.10906 56.7295 7.23081 56.771 7.37168C58.1437 10.5613 59.5244 13.747 60.913 16.9288C62.3654 20.2774 63.8188 23.6249 65.2731 26.9715C65.3084 27.0462 65.3393 27.1228 65.3658 27.201C65.3956 27.2663 65.4079 27.3381 65.4014 27.4094C65.3949 27.4808 65.3699 27.5493 65.3288 27.6084C65.2877 27.6675 65.2318 27.7151 65.1666 27.7469C65.1014 27.7786 65.029 27.7933 64.9564 27.7895C64.1913 27.7895 63.4263 27.816 62.6642 27.7895C62.4999 27.7895 62.2847 27.557 62.207 27.3834C61.4957 25.8063 60.7785 24.2291 60.1151 22.6313C58.7045 19.1916 57.3269 15.7636 55.9342 12.3474C55.8528 12.0716 55.6647 11.8383 55.4105 11.6975C55.1563 11.5567 54.8562 11.5196 54.5745 11.5941C54.3714 11.6435 54.185 11.7445 54.034 11.887C53.883 12.0295 53.7726 12.2086 53.7138 12.4063C52.4009 15.5312 51.086 18.6502 49.7691 21.7633C48.9881 23.6288 48.2141 25.4924 47.4471 27.354C47.4073 27.4947 47.3176 27.6167 47.1942 27.6977C47.0707 27.7788 46.9219 27.8134 46.7746 27.7954C46.1411 27.7718 45.5075 27.7954 44.874 27.7954C44.3181 27.7954 44.1538 27.5482 44.3779 27.0303C45.4099 24.6567 46.4439 22.2831 47.4799 19.9096C49.2909 15.7469 51.0999 11.5873 52.9069 7.43053C52.9506 7.26785 53.0529 7.1264 53.1949 7.03269C53.3368 6.93898 53.5085 6.89945 53.678 6.92149C54.0784 6.95091 54.4729 6.93031 54.8733 6.93031Z" fill="#010101"/>
<path d="M100.821 17.3495V7.40097C100.821 6.939 100.821 6.93018 101.308 6.93018C102.049 6.93018 102.802 6.93018 103.531 6.93018C103.848 6.93018 103.949 7.04493 103.946 7.34212C103.932 8.01301 103.946 8.68389 103.946 9.35477V27.2538C103.946 27.7894 103.946 27.7894 103.418 27.7923C102.703 27.7923 101.986 27.7746 101.269 27.7923C100.919 27.7923 100.821 27.6864 100.821 27.348C100.827 24.0171 100.821 20.6862 100.821 17.3495Z" fill="#010101"/>
<path d="M26.6025 34.36C27.7979 33.5331 28.9246 32.7416 30.0512 31.9383C30.288 31.7566 30.5126 31.56 30.7236 31.3498C30.9119 31.1821 31.0762 31.185 31.1779 31.4175C31.6062 32.3983 32.0286 33.3791 32.445 34.36C32.5436 34.5924 32.427 34.6895 32.1939 34.6895C30.4517 34.6895 28.7094 34.6895 26.9671 34.6895C26.6593 34.7101 26.6593 34.4747 26.6025 34.36Z" fill="#010101"/>
</svg>
